# Blender v2.93.6 OBJ File: ''
# www.blender.org
mtllib saku.mtl
o Cube
v -0.735553 1.000000 -1.000000
v -0.735553 -1.000000 -1.000000
v -0.735553 0.939951 -0.719209
v -0.735553 -1.000000 -0.719209
v -1.000000 1.000000 -1.000000
v -1.000000 -1.000000 -1.000000
v -1.000000 1.000000 -0.719209
v -1.000000 -1.000000 -0.719209
v -0.915788 -0.432312 3.257895
v -0.915788 -0.184839 3.296076
v -0.915788 -0.432312 -1.133543
v -0.915788 -0.184839 -1.133543
v -0.853764 -0.432312 3.257895
v -0.853764 -0.184839 3.296076
v -0.853764 -0.432312 -1.133543
v -0.853764 -0.184839 -1.133543
v -1.000000 -0.461046 1.000000
v -1.000000 0.590770 1.000000
v -1.000000 -0.461046 0.760528
v -1.000000 0.544280 0.760528
v -0.733976 -0.461046 1.000000
v -0.733976 0.590770 1.000000
v -0.733976 -0.515437 0.756388
v -0.733976 0.590770 0.756388
v -0.917343 0.200184 3.124627
v -0.917343 0.378551 3.124627
v -0.915802 0.200184 -1.036156
v -0.915802 0.378551 -1.036156
v -0.849335 0.200184 3.124627
v -0.849335 0.336327 3.124627
v -0.847794 0.200184 -1.036156
v -0.847794 0.378551 -1.036156
v -1.000000 -0.422394 1.000000
v -1.000000 0.590770 1.000000
v -0.733976 0.590770 1.000000
v -0.733976 -0.424932 1.000000
v -1.000000 -0.461046 1.226213
v -1.000000 0.431392 1.226213
v -0.733976 0.556493 1.226213
v -0.733976 -0.461046 1.226213
v -1.000000 -1.000000 3.076767
v -1.000000 0.836115 3.076767
v -1.000000 -1.000000 2.866539
v -1.000000 0.888994 2.866539
v -0.716196 -1.000000 3.076767
v -0.716196 0.888994 3.076767
v -0.716196 -1.000000 2.866539
v -0.716196 0.825804 2.866539
vt 0.625000 0.500000
vt 0.875000 0.500000
vt 0.875000 0.750000
vt 0.625000 0.750000
vt 0.375000 0.750000
vt 0.625000 1.000000
vt 0.375000 1.000000
vt 0.375000 0.000000
vt 0.625000 0.000000
vt 0.625000 0.250000
vt 0.375000 0.250000
vt 0.125000 0.500000
vt 0.375000 0.500000
vt 0.125000 0.750000
vt 0.375000 0.000000
vt 0.625000 0.000000
vt 0.625000 0.250000
vt 0.375000 0.250000
vt 0.625000 0.500000
vt 0.375000 0.500000
vt 0.625000 0.750000
vt 0.375000 0.750000
vt 0.625000 1.000000
vt 0.375000 1.000000
vt 0.125000 0.500000
vt 0.125000 0.750000
vt 0.875000 0.500000
vt 0.875000 0.750000
vt 0.375000 0.000000
vt 0.625000 0.000000
vt 0.625000 0.250000
vt 0.375000 0.250000
vt 0.625000 0.500000
vt 0.375000 0.500000
vt 0.625000 0.750000
vt 0.375000 0.750000
vt 0.125000 0.750000
vt 0.375000 0.750000
vt 0.125000 0.750000
vt 0.125000 0.500000
vt 0.875000 0.500000
vt 0.875000 0.750000
vt 0.375000 0.000000
vt 0.625000 0.000000
vt 0.625000 0.250000
vt 0.375000 0.250000
vt 0.625000 0.500000
vt 0.375000 0.500000
vt 0.625000 0.750000
vt 0.375000 0.750000
vt 0.625000 1.000000
vt 0.375000 1.000000
vt 0.125000 0.500000
vt 0.125000 0.750000
vt 0.875000 0.500000
vt 0.875000 0.750000
vt 0.375000 0.750000
vt 0.125000 0.750000
vt 0.875000 0.750000
vt 0.625000 0.750000
vt 0.375000 0.000000
vt 0.625000 0.000000
vt 0.625000 0.750000
vt 0.625000 1.000000
vt 0.375000 1.000000
vt 0.375000 0.000000
vt 0.625000 0.000000
vt 0.875000 0.750000
vt 0.375000 0.000000
vt 0.625000 0.000000
vt 0.625000 0.250000
vt 0.375000 0.250000
vt 0.625000 0.500000
vt 0.375000 0.500000
vt 0.625000 0.750000
vt 0.375000 0.750000
vt 0.625000 1.000000
vt 0.375000 1.000000
vt 0.125000 0.500000
vt 0.125000 0.750000
vt 0.875000 0.500000
vt 0.875000 0.750000
vn 0.1122 0.9881 0.1057
vn -0.0000 0.0000 1.0000
vn -1.0000 0.0000 0.0000
vn 0.0000 -1.0000 0.0000
vn 1.0000 0.0000 0.0000
vn 0.0000 0.0000 -1.0000
vn 0.0000 -0.1525 0.9883
vn 0.0000 1.0000 0.0000
vn -0.0156 0.0000 -0.9999
vn -0.1002 -0.9887 0.1113
vn -0.0874 0.9916 -0.0954
vn -1.0000 0.0000 -0.0004
vn 1.0000 0.0000 0.0004
vn 0.2965 0.9550 0.0050
vn -0.0047 -0.9866 -0.1630
vn -0.2113 0.8986 0.3846
vn 0.0182 0.9995 -0.0245
usemtl Material
s off
f 1/1/1 5/2/1 7/3/1 3/4/1
f 4/5/2 3/4/2 7/6/2 8/7/2
f 8/8/3 7/9/3 5/10/3 6/11/3
f 6/12/4 2/13/4 4/5/4 8/14/4
f 2/13/5 1/1/5 3/4/5 4/5/5
f 6/11/6 5/10/6 1/1/6 2/13/6
f 9/15/3 10/16/3 12/17/3 11/18/3
f 11/18/6 12/17/6 16/19/6 15/20/6
f 15/20/5 16/19/5 14/21/5 13/22/5
f 13/22/7 14/21/7 10/23/7 9/24/7
f 11/25/4 15/20/4 13/22/4 9/26/4
f 16/19/8 12/27/8 10/28/8 14/21/8
f 17/29/3 18/30/3 20/31/3 19/32/3
f 19/32/9 20/31/9 24/33/9 23/34/9
f 23/34/5 24/33/5 22/35/5 21/36/5
f 17/37/2 21/36/2 36/38/2 33/39/2
f 19/40/10 23/34/10 21/36/10 17/37/10
f 24/33/11 20/41/11 18/42/11 22/35/11
f 25/43/12 26/44/12 28/45/12 27/46/12
f 27/46/6 28/45/6 32/47/6 31/48/6
f 31/48/13 32/47/13 30/49/13 29/50/13
f 29/50/2 30/49/2 26/51/2 25/52/2
f 27/53/4 31/48/4 29/50/4 25/54/4
f 32/47/14 28/55/14 26/56/14 30/49/14
f 33/39/15 36/38/15 40/57/15 37/58/15
f 22/35/2 18/42/2 34/59/2 35/60/2
f 21/36/2 22/35/2 35/60/2 36/38/2
f 18/30/3 17/29/3 33/61/3 34/62/3
f 40/57/2 39/63/2 38/64/2 37/65/2
f 34/62/3 33/61/3 37/66/3 38/67/3
f 35/60/16 34/59/16 38/68/16 39/63/16
f 36/38/5 35/60/5 39/63/5 40/57/5
f 41/69/3 42/70/3 44/71/3 43/72/3
f 43/72/6 44/71/6 48/73/6 47/74/6
f 47/74/5 48/73/5 46/75/5 45/76/5
f 45/76/2 46/75/2 42/77/2 41/78/2
f 43/79/4 47/74/4 45/76/4 41/80/4
f 48/73/17 44/81/17 42/82/17 46/75/17
